<svg width="16" height="16" viewBox="0 0 16 16" fill="none" xmlns="http://www.w3.org/2000/svg">
<path d="M4.2 4.64286C4.2 4.39827 4.39827 4.2 4.64286 4.2H11.3571C11.6017 4.2 11.8 4.39827 11.8 4.64286V11.3571C11.8 11.6017 11.6017 11.8 11.3571 11.8H4.64286C4.39827 11.8 4.2 11.6017 4.2 11.3571V4.64286Z" stroke="#A88AEC" stroke-width="1.4"/>
<path d="M8.92817 1.92837H7.07169C7.13465 1.89203 7.20772 1.87123 7.28564 1.87123H8.71422C8.79214 1.87123 8.86521 1.89203 8.92817 1.92837Z" fill="#A88AEC" stroke="#A88AEC" stroke-width="1.14286"/>
<path d="M14.2269 8.92866L14.2269 7.07218C14.2632 7.13514 14.284 7.20821 14.284 7.28613L14.284 8.7147C14.284 8.79263 14.2632 8.8657 14.2269 8.92866Z" fill="#A88AEC" stroke="#A88AEC" stroke-width="1.14286"/>
<path d="M8.92817 14.2289H7.07169C7.13465 14.2652 7.20772 14.286 7.28564 14.286H8.71422C8.79214 14.286 8.86521 14.2652 8.92817 14.2289Z" fill="#A88AEC" stroke="#A88AEC" stroke-width="1.14286"/>
<path d="M1.7731 8.92866L1.7731 7.07218C1.73676 7.13514 1.71596 7.20821 1.71596 7.28613L1.71596 8.7147C1.71596 8.79263 1.73676 8.8657 1.7731 8.92866Z" fill="#A88AEC" stroke="#A88AEC" stroke-width="1.14286"/>
</svg>
