<svg width="18" height="23" viewBox="0 0 18 23" fill="none" xmlns="http://www.w3.org/2000/svg">
<path fill-rule="evenodd" clip-rule="evenodd" d="M12 2.14551C12.053 2.14551 12.1039 2.16717 12.1414 2.20569C12.1789 2.24421 12.2 2.29645 12.2 2.35093V4.40498C12.2 4.45946 12.1789 4.5117 12.1414 4.55022C12.1039 4.58875 12.053 4.6104 12 4.6104H6C5.94696 4.6104 5.89609 4.58875 5.85858 4.55022C5.82107 4.5117 5.79999 4.45946 5.79999 4.40498V2.35093C5.79999 2.29645 5.82107 2.24421 5.85858 2.20569C5.89609 2.16717 5.94696 2.14551 6 2.14551H12ZM12 0.296875H6C5.46957 0.296875 4.96089 0.513282 4.58582 0.898492C4.21074 1.2837 4 1.80616 4 2.35093L2 2.35093C1.46957 2.35093 0.960888 2.56734 0.585815 2.95255C0.210743 3.33776 0 3.86021 0 4.40498V20.8374C0 21.3822 0.210743 21.9046 0.585815 22.2899C0.960888 22.6751 1.46957 22.8915 2 22.8915H16C16.5304 22.8915 17.0391 22.6751 17.4142 22.2899C17.7893 21.9046 18 21.3822 18 20.8374V4.40498C18 3.86021 17.7893 3.33776 17.4142 2.95255C17.0391 2.56734 16.5304 2.35093 16 2.35093L14 2.35093C14 1.80616 13.7893 1.2837 13.4142 0.898492C13.0391 0.513282 12.5304 0.296875 12 0.296875ZM2 4.19957H4V4.40498C4 4.94975 4.21074 5.47221 4.58582 5.85742C4.96089 6.24263 5.46957 6.45904 6 6.45904H12C12.5304 6.45904 13.0391 6.24263 13.4142 5.85742C13.7893 5.47221 14 4.94975 14 4.40498V4.19957H16C16.053 4.19957 16.1039 4.22122 16.1414 4.25974C16.1789 4.29826 16.2 4.35051 16.2 4.40498V20.8374C16.2 20.8919 16.1789 20.9441 16.1414 20.9827C16.1039 21.0212 16.053 21.0428 16 21.0428H2C1.94696 21.0428 1.89609 21.0212 1.85858 20.9827C1.82107 20.9441 1.79999 20.8919 1.79999 20.8374V4.40498C1.79999 4.35051 1.82107 4.29826 1.85858 4.25974C1.89609 4.22122 1.94696 4.19957 2 4.19957ZM4 8.51309H14C14.2652 8.51309 14.5196 8.60508 14.7071 8.76879C14.8946 8.93251 15 9.15454 15 9.38607C15 9.61759 14.8946 9.83962 14.7071 10.0033C14.5196 10.1671 14.2652 10.259 14 10.259H4C3.73478 10.259 3.48044 10.1671 3.29291 10.0033C3.10537 9.83962 3 9.61759 3 9.38607C3 9.15454 3.10537 8.93251 3.29291 8.76879C3.48044 8.60508 3.73478 8.51309 4 8.51309ZM4 12.6212H14C14.2652 12.6212 14.5196 12.7132 14.7071 12.8769C14.8946 13.0406 15 13.2626 15 13.4942C15 13.7257 14.8946 13.9477 14.7071 14.1114C14.5196 14.2752 14.2652 14.3671 14 14.3671H4C3.73478 14.3671 3.48044 14.2752 3.29291 14.1114C3.10537 13.9477 3 13.7257 3 13.4942C3 13.2626 3.10537 13.0406 3.29291 12.8769C3.48044 12.7132 3.73478 12.6212 4 12.6212ZM8.70709 16.985C8.51956 16.8213 8.26522 16.7293 8 16.7293H4C3.73478 16.7293 3.48044 16.8213 3.29291 16.985C3.10537 17.1487 3 17.3708 3 17.6023C3 17.8338 3.10537 18.0558 3.29291 18.2196C3.48044 18.3833 3.73478 18.4753 4 18.4753H8C8.26522 18.4753 8.51956 18.3833 8.70709 18.2196C8.89463 18.0558 9 17.8338 9 17.6023C9 17.3708 8.89463 17.1487 8.70709 16.985Z" fill="#666666"/>
</svg>
