<svg width="24" height="25" viewBox="0 0 24 25" fill="none" xmlns="http://www.w3.org/2000/svg">
<path opacity="0.5" fill-rule="evenodd" clip-rule="evenodd" d="M20.4171 13.1767L18 15.1626L15 19.7843L13 21.3248L12.7926 22.1769C9.93907 21.7509 8 21.227 8 17.7302C8 13.7597 11.134 10.541 15 10.541C17.1834 10.541 19.1334 11.5677 20.4171 13.1767Z" fill="#4C95FF"/>
<path d="M18.692 16.9186C20.1189 15.2603 21 13.0823 21 10.6768C21 9.09057 20.6121 7.60321 19.943 6.29242C19.9166 6.2218 19.882 6.16247 19.8432 6.10032C19.8169 6.0523 19.7947 6.00286 19.767 5.95484L19.7532 5.97037C19.5814 5.78393 19.3445 5.66669 19.0785 5.67658C18.5812 5.69353 18.1919 6.12716 18.2071 6.64696L18.2196 6.73312C18.2265 6.98596 18.3332 7.21054 18.4939 7.37298L18.4842 7.38428C18.9691 8.39421 19.2475 9.53127 19.2475 10.7389C19.2475 12.6147 18.5812 14.3238 17.4895 15.6389C17.4258 15.6784 17.3593 15.7109 17.3039 15.7674L16.5447 16.5965C16.5225 16.6149 16.5059 16.6333 16.4837 16.6516L13.4761 19.9201C13.4858 19.9187 13.4955 19.9145 13.5052 19.9117L11.9938 21.5615L10.4837 19.9131C10.4865 19.9145 10.4893 19.9159 10.492 19.9159L7.48441 16.581C7.34172 16.4595 7.21011 16.3268 7.07573 16.1968L6.68368 15.7674C6.67952 15.7618 6.67259 15.7604 6.66705 15.7561C5.51859 14.4241 4.81067 12.6698 4.81067 10.7389C4.81067 6.58481 8.04272 3.21602 12.0298 3.21602C13.4082 3.21602 14.6911 3.62564 15.7869 4.32482L15.7952 4.31493C15.9601 4.46466 16.1762 4.55788 16.4117 4.54941C16.9076 4.53104 17.2997 4.09741 17.2831 3.57903L17.2706 3.49145C17.2637 3.2711 17.1736 3.079 17.0448 2.9208L17.0503 2.91515C17.0448 2.91092 17.0379 2.90668 17.0337 2.90244C16.9215 2.77391 16.7816 2.68209 16.6195 2.63266C15.2688 1.78799 13.6908 1.29785 11.9993 1.29785C7.02863 1.29785 3 5.49719 3 10.6768C3 13.0639 3.86585 15.2335 5.27753 16.8861C5.31632 16.9596 5.35096 17.033 5.41053 17.0937L11.3149 23.5389C11.3288 23.5559 11.3343 23.5771 11.3496 23.594C11.362 23.6067 11.3787 23.611 11.3911 23.6237L11.3925 23.6251C11.459 23.6943 11.538 23.7367 11.6183 23.7791C11.6294 23.7847 11.6377 23.796 11.6474 23.8003C11.9827 23.9641 12.39 23.9118 12.6671 23.6251C12.7377 23.5502 12.7848 23.4627 12.8264 23.3737L18.5784 17.0937C18.6296 17.0415 18.656 16.9779 18.692 16.9186Z" fill="#4C95FF"/>
<path fill-rule="evenodd" clip-rule="evenodd" d="M15.632 10.7306C15.632 12.8239 14.0042 14.5231 11.9955 14.5231C9.98669 14.5231 8.35889 12.8253 8.35889 10.7306C8.35889 8.63586 9.98669 6.93945 11.9955 6.93945C14.0042 6.93945 15.632 8.63586 15.632 10.7306ZM13.7757 10.7176C13.7757 9.68509 12.9735 8.8489 11.983 8.8489C10.9911 8.8489 10.189 9.68509 10.189 10.7162C10.189 11.7502 10.9925 12.5892 11.983 12.5892C12.9735 12.5892 13.7757 11.7502 13.7757 10.7176Z" fill="#4C95FF"/>
</svg>
